<svg width="100" height="100" viewBox="0 0 100 100" fill="none" xmlns="http://www.w3.org/2000/svg">
<path d="M100.001 0V49.9995C100.001 77.6148 77.6158 100 50.0005 100C22.3863 100 0 77.6148 0 49.9995C0 22.3852 22.3863 0 50.0005 0H100.001Z" fill="#2C3645"/>
<path d="M61.3097 46.557C59.636 47.9722 57.2146 48.6765 54.0434 48.6765H42.0188V30.7705H54.7359C57.7913 30.7705 60.0698 31.4932 61.5683 32.9333C63.0689 34.3766 63.8176 36.653 63.8176 39.7679C63.8176 42.8817 62.9813 45.1451 61.3097 46.557ZM66.7172 57.7171C66.1676 56.883 65.4622 56.0899 64.5966 55.338C68.114 54.1262 70.8394 52.1679 72.7717 49.4555C74.703 46.7452 75.6692 43.5168 75.6692 39.7679C75.6692 33.8854 74.1263 29.3001 71.0406 26.0132C67.956 22.7263 63.2994 21.0828 57.0718 21.0828H30.3415V76.7906H42.0188V58.3663H51.1893C52.7451 58.3663 53.8844 58.6119 54.605 59.1031C55.3266 59.5921 55.9747 60.4999 56.5525 61.8263L63.1263 76.7906H75.2375L68.4894 61.2215C67.8543 59.7231 67.2636 58.5546 66.7172 57.7171Z" fill="white"/>
</svg>
